<?xml version="1.0" encoding="UTF-8"?>
<svg xmlns="http://www.w3.org/2000/svg" width="200" height="214" viewBox="0 0 200 214" fill="none">
  <g clip-path="url(#clip0_7_2)">
    <rect width="200" height="213.761" fill="white"></rect>
    <path d="M1.97247 15.8716H0.0458679V0.45871H1.97247V15.8716Z" fill="black"></path>
    <path d="M11.3303 5.13762C11.9725 5.13762 12.6147 5.22936 13.0734 5.41285C13.5321 5.59633 14.0825 5.87156 14.4495 6.23854C14.8165 6.60551 15.1835 7.06422 15.367 7.52294C15.5504 7.98166 15.6422 8.7156 15.6422 9.3578V15.8716H13.8073V10C13.8073 8.99083 13.5321 8.25688 13.0734 7.70643C12.6147 7.15597 11.8807 6.88074 10.9633 6.88074C10.5046 6.88074 10.1376 6.97248 9.77062 7.06422C9.40365 7.15597 9.03668 7.4312 8.76145 7.70643C8.48622 7.98166 8.30273 8.25689 8.11925 8.7156C7.93576 9.08257 7.84402 9.54129 7.84402 10V15.8716H6.00916V5.41285H7.75227V6.789C8.11925 6.42202 8.30273 6.23854 8.57796 6.05505C8.85319 5.77982 9.12842 5.68808 9.40365 5.50459C9.67888 5.41285 10.0459 5.32111 10.3211 5.22936C10.5963 5.13762 10.9633 5.13762 11.3303 5.13762Z" fill="black"></path>
    <path d="M30.6881 5.13762C31.422 5.13762 32.0642 5.32111 32.7064 5.50459C33.3486 5.77982 33.8991 6.14679 34.3578 6.60551C34.8165 7.06422 35.1835 7.61468 35.4587 8.34863C35.7339 9.08257 35.8257 9.72478 35.8257 10.5505C35.8257 11.3762 35.8257 12.1101 35.5504 12.844C35.2752 13.4862 34.9082 14.1284 34.4495 14.5872C33.9908 15.0459 33.4404 15.4128 32.7982 15.6881C32.156 15.9633 31.5137 16.0551 30.7798 16.0551C29.9541 16.0551 29.2202 15.8716 28.578 15.5963C27.9358 15.3211 27.477 14.8624 27.0183 14.4037V20.1835H25.1835V5.41285H27.0183V6.789C27.477 6.33028 27.9358 5.87156 28.578 5.59633C29.1284 5.32111 29.8624 5.13762 30.6881 5.13762ZM30.5046 6.88074C29.9541 6.88074 29.4954 6.97248 29.0367 7.15597C28.578 7.33945 28.211 7.61468 27.9358 7.98166C27.5688 8.25689 27.3853 8.7156 27.2018 9.17432C27.0183 9.63303 26.9266 10.0917 26.9266 10.6422C26.9266 11.1927 27.0183 11.6514 27.2018 12.1101C27.3853 12.5688 27.6605 12.9358 27.9358 13.3028C28.211 13.6697 28.6697 13.945 29.0367 14.1284C29.4954 14.3119 29.9541 14.4037 30.5046 14.4037C31.055 14.4037 31.5137 14.3119 31.9725 14.1284C32.4312 13.945 32.7982 13.6697 33.0734 13.3028C33.3486 12.9358 33.6238 12.5688 33.8073 12.1101C33.9908 11.6514 34.0826 11.1927 34.0826 10.6422C34.0826 10.0917 33.9908 9.63303 33.8991 9.17432C33.8073 8.7156 33.4404 8.25689 33.1651 7.98166C32.8899 7.61468 32.4312 7.33945 32.0642 7.15597C31.5137 6.97248 31.055 6.88074 30.5046 6.88074Z" fill="black"></path>
    <path d="M48.9449 15.8716H47.1101V14.4954C46.6514 14.9541 46.1926 15.4128 45.5504 15.6881C44.9082 15.9633 44.266 16.1468 43.4403 16.1468C42.7064 16.1468 42.0642 16.0551 41.422 15.7798C40.7798 15.5046 40.2293 15.1376 39.7706 14.6789C39.3119 14.2202 38.9449 13.6697 38.6697 12.9358C38.3945 12.2936 38.3027 11.5596 38.3027 10.7339C38.3027 9.90826 38.4862 9.17432 38.6697 8.53212C38.9449 7.88991 39.3119 7.33945 39.7706 6.789C40.2293 6.33028 40.7798 5.96331 41.422 5.68808C42.0642 5.41285 42.7064 5.32111 43.4403 5.32111C44.266 5.32111 45 5.50459 45.5504 5.77982C46.1009 6.05505 46.6514 6.51377 47.1101 6.97248V5.41285H48.9449V15.8716ZM43.6238 6.88074C43.0734 6.88074 42.6147 6.97248 42.1559 7.15597C41.6972 7.33945 41.3303 7.61468 40.9633 7.98166C40.6881 8.34863 40.4128 8.7156 40.3211 9.17432C40.1376 9.63303 40.0459 10.0917 40.0459 10.6422C40.0459 11.1927 40.1376 11.6514 40.3211 12.1101C40.5046 12.5688 40.7798 12.9358 41.055 13.3028C41.3303 13.6697 41.789 13.945 42.1559 14.1284C42.6147 14.3119 43.0734 14.4037 43.6238 14.4037C44.1743 14.4037 44.633 14.3119 45.0917 14.1284C45.5504 13.945 45.9174 13.6697 46.1926 13.3028C46.4679 12.9358 46.7431 12.5688 46.9266 12.1101C47.1101 11.6514 47.2018 11.1927 47.2018 10.6422C47.2018 10.0917 47.1101 9.63303 46.9266 9.17432C46.7431 8.7156 46.4679 8.34863 46.1926 7.98166C45.9174 7.61468 45.5504 7.33945 45.0917 7.15597C44.633 6.97248 44.1743 6.88074 43.6238 6.88074Z" fill="black"></path>
    <path d="M57.5688 5.13762C57.9358 5.13762 58.3027 5.13762 58.578 5.22936C58.8532 5.32111 59.2202 5.41285 59.4954 5.50459L59.0367 7.24771C58.7615 7.15597 58.4862 7.06422 58.211 6.97248C57.9358 6.88074 57.5688 6.88074 57.2936 6.88074C56.9266 6.88074 56.5596 6.97248 56.1927 7.06422C55.8257 7.24771 55.5504 7.4312 55.367 7.70643C55.1835 7.98166 54.9082 8.34863 54.8165 8.7156C54.7248 9.08257 54.633 9.54129 54.633 10V15.7798H52.7982V5.41285H54.5413V6.789C54.9082 6.23854 55.367 5.87156 55.9174 5.59633C56.4679 5.32111 56.9266 5.13762 57.5688 5.13762Z" fill="black"></path>
    <path d="M69.2202 7.06422H64.8165V12.2018C64.8165 12.5688 64.9083 12.9358 65 13.211C65.0917 13.4862 65.2752 13.7615 65.367 13.945C65.5505 14.1284 65.7339 14.3119 66.0092 14.3119C66.2844 14.4037 66.5596 14.4037 66.8349 14.4037C67.2018 14.4037 67.5688 14.3119 67.9358 14.2202C68.3028 14.1284 68.6697 13.945 68.945 13.6697L69.7706 15.0459C69.4037 15.3211 68.945 15.5963 68.3945 15.7798C67.844 15.9633 67.2936 16.055 66.6514 16.055C66.1009 16.055 65.5505 15.9633 65.0917 15.7798C64.633 15.5963 64.2661 15.4128 63.9908 15.0459C63.7156 14.6789 63.4404 14.3119 63.2569 13.8532C63.0734 13.3945 62.9817 12.7523 62.9817 12.1101V7.06422H60.7798V5.41284H62.9817V2.11009H64.8165V5.41284H69.2202V7.06422Z" fill="black"></path>
    <path d="M77.3853 5.13762C78.0275 5.13762 78.578 5.22936 79.1284 5.41285C79.6789 5.59633 80.1376 5.87156 80.5046 6.23854C80.8715 6.60551 81.2385 7.06422 81.422 7.52294C81.6055 7.98166 81.6972 8.7156 81.6972 9.3578V15.8716H79.8624V10C79.8624 8.99083 79.5871 8.25688 79.1284 7.70643C78.6697 7.15597 77.9358 6.88074 77.0183 6.88074C76.5596 6.88074 76.1926 6.97248 75.8257 7.06422C75.4587 7.15597 75.0917 7.4312 74.8165 7.70643C74.5413 7.98166 74.3578 8.25689 74.1743 8.7156C73.9908 9.17432 73.8991 9.54129 73.8991 10V15.8716H72.0642V5.41285H73.8073V6.789C74.1743 6.42202 74.3578 6.23854 74.633 6.05505C74.9082 5.87156 75.1835 5.68808 75.4587 5.59633C75.7339 5.50459 76.1009 5.41285 76.3761 5.32111C76.6514 5.22936 77.0183 5.13762 77.3853 5.13762Z" fill="black"></path>
    <path d="M89.7706 5.13762C90.5046 5.13762 91.1468 5.22936 91.789 5.50459C92.4312 5.77982 92.8899 6.14679 93.3486 6.60551C93.8073 7.06422 94.0825 7.61468 94.3578 8.34863C94.633 8.99083 94.7247 9.72478 94.7247 10.5505C94.7247 10.6422 94.7247 10.7339 94.7247 10.9174C94.7247 11.0092 94.7247 11.1009 94.7247 11.2844H86.4679C86.5596 11.8349 86.6513 12.2936 86.8348 12.7523C87.0183 13.1193 87.2935 13.4862 87.6605 13.7615C88.0275 14.0367 88.3027 14.2202 88.7614 14.4037C89.2202 14.5872 89.5871 14.5872 90.0458 14.5872C90.688 14.5872 91.2385 14.4954 91.789 14.2202C92.3394 13.945 92.7981 13.6697 93.2569 13.3028L94.1743 14.4954C93.8991 14.7706 93.5321 15.0459 93.1651 15.2294C92.7981 15.4128 92.4312 15.5963 92.0642 15.6881C91.6972 15.7798 91.3302 15.8716 90.9633 15.9633C90.5963 16.055 90.2293 16.055 89.8624 16.055C89.1284 16.055 88.3945 15.9633 87.7523 15.6881C87.1101 15.4128 86.5596 15.0459 86.1009 14.5872C85.6422 14.1284 85.2752 13.578 85 12.844C84.7247 12.2018 84.633 11.4679 84.633 10.6422C84.633 9.81652 84.7247 9.08257 85 8.44037C85.2752 7.79817 85.6422 7.15597 86.1009 6.69725C86.5596 6.23854 87.1101 5.87156 87.7523 5.59633C88.3945 5.32111 89.1284 5.13762 89.7706 5.13762ZM89.7706 6.789C89.3119 6.789 88.8532 6.88074 88.4862 6.97248C88.1192 7.15597 87.844 7.33945 87.5688 7.61468C87.2936 7.88991 87.0183 8.16514 86.9266 8.53211C86.7431 8.89909 86.6513 9.3578 86.5596 9.72478H92.9816C92.8899 9.26606 92.7981 8.80734 92.6147 8.44037C92.4312 8.0734 92.2477 7.70643 91.9724 7.52294C91.6972 7.33945 91.422 7.06422 91.055 6.88074C90.688 6.69725 90.2293 6.789 89.7706 6.789Z" fill="black"></path>
    <path d="M102.615 5.13762C102.982 5.13762 103.349 5.13762 103.624 5.22936C103.899 5.32111 104.266 5.41285 104.541 5.50459L104.083 7.24771C103.807 7.15597 103.532 7.06422 103.257 6.97248C102.982 6.88074 102.615 6.88074 102.339 6.88074C101.972 6.88074 101.605 6.97248 101.239 7.06422C100.872 7.15597 100.596 7.4312 100.413 7.70643C100.229 7.98166 99.9541 8.34863 99.8624 8.7156C99.7706 9.08257 99.6789 9.54129 99.6789 10V15.7798H97.844V5.41285H99.5871V6.789C99.9541 6.23854 100.413 5.87156 100.963 5.59633C101.514 5.32111 101.972 5.13762 102.615 5.13762Z" fill="black"></path>
    <path d="M113.807 7.70642C113.624 7.61467 113.44 7.52293 113.165 7.33945C112.89 7.2477 112.615 7.15596 112.339 7.06422C112.064 6.97247 111.697 6.88073 111.422 6.88073C111.055 6.78899 110.78 6.78899 110.413 6.78899C109.679 6.78899 109.128 6.97247 108.67 7.2477C108.211 7.52293 108.028 7.8899 108.028 8.34862C108.028 8.80734 108.211 9.08257 108.578 9.26605C108.945 9.44954 109.404 9.63302 110.046 9.72477L111.239 9.90825C111.789 10 112.339 10.0917 112.706 10.2752C113.073 10.4587 113.532 10.6422 113.807 10.8257C114.083 11.1009 114.358 11.3761 114.541 11.6514C114.725 11.9266 114.816 12.3853 114.816 12.7523C114.816 13.211 114.725 13.6697 114.541 14.1284C114.358 14.4954 113.991 14.8624 113.624 15.1376C113.257 15.4128 112.706 15.5963 112.156 15.7798C111.605 15.9633 110.963 15.9633 110.229 15.9633C109.954 15.9633 109.587 15.9633 109.22 15.8716C108.853 15.7798 108.486 15.7798 108.119 15.6881C107.752 15.5963 107.385 15.4128 107.018 15.2294C106.651 15.0459 106.284 14.8624 105.917 14.5872L106.743 13.211C106.927 13.3945 107.11 13.4862 107.385 13.6697C107.661 13.8532 107.844 13.945 108.119 14.0367C108.394 14.1284 108.761 14.2202 109.128 14.3119C109.495 14.4037 109.862 14.4037 110.321 14.4037C111.147 14.4037 111.881 14.3119 112.339 14.0367C112.798 13.7615 113.073 13.3945 113.073 12.844C113.073 12.0183 112.339 11.5596 110.963 11.3761L109.771 11.1927C108.578 11.0092 107.752 10.7339 107.11 10.1835C106.56 9.63302 106.284 8.99082 106.284 8.25688C106.284 7.79816 106.376 7.33945 106.56 6.88073C106.743 6.51376 107.018 6.14679 107.385 5.87156C107.752 5.59633 108.211 5.41284 108.67 5.22935C109.22 5.04587 109.771 5.04587 110.413 5.04587C111.239 5.04587 112.064 5.13761 112.706 5.3211C113.349 5.50458 114.083 5.77981 114.541 6.14679L113.807 7.70642Z" fill="black"></path>
    <path d="M119.495 6.78899C119.679 6.51376 119.954 6.23853 120.229 6.05505C120.505 5.87156 120.78 5.68807 121.055 5.59633C121.33 5.50459 121.697 5.41284 121.972 5.3211C122.248 5.22936 122.615 5.22936 122.89 5.22936C123.532 5.22936 124.174 5.3211 124.633 5.50459C125.183 5.68807 125.642 5.9633 126.009 6.33028C126.376 6.69725 126.743 7.15596 126.927 7.61468C127.11 8.16514 127.294 8.7156 127.294 9.3578V15.8716H125.459V10C125.459 8.99083 125.183 8.25688 124.725 7.70642C124.266 7.15596 123.532 6.88073 122.615 6.88073C122.156 6.88073 121.789 6.97248 121.422 7.06422C121.055 7.15596 120.688 7.43119 120.413 7.70642C120.138 7.98165 119.862 8.25688 119.771 8.7156C119.679 9.17431 119.495 9.54128 119.495 10V15.8716H117.661V0H119.495V6.78899Z" fill="black"></path>
    <path d="M131.881 0.45871C132.064 0.45871 132.248 0.45871 132.431 0.550453C132.615 0.642196 132.706 0.733939 132.798 0.825682C132.89 0.917425 132.982 1.10091 133.073 1.19265C133.165 1.2844 133.165 1.55963 133.165 1.65137C133.165 1.74311 133.165 2.01834 133.073 2.11009C132.982 2.20183 132.89 2.38532 132.798 2.47706C132.706 2.5688 132.523 2.66054 132.431 2.75229C132.339 2.84403 132.064 2.84403 131.881 2.84403C131.697 2.84403 131.514 2.84403 131.422 2.75229C131.33 2.66054 131.147 2.5688 131.055 2.47706C130.963 2.38532 130.872 2.20183 130.78 2.11009C130.688 1.9266 130.688 1.83486 130.688 1.65137C130.688 1.46788 130.688 1.2844 130.78 1.19265C130.872 1.10091 130.963 0.917425 131.055 0.825682C131.147 0.733939 131.33 0.642196 131.422 0.550453C131.514 0.45871 131.697 0.45871 131.881 0.45871ZM132.798 15.8716H130.963V5.41284H132.798V15.8716Z" fill="black"></path>
    <path d="M142.064 5.13762C142.798 5.13762 143.532 5.32111 144.083 5.50459C144.725 5.77982 145.275 6.14679 145.734 6.60551C146.193 7.06422 146.56 7.61468 146.835 8.34863C147.11 9.08257 147.202 9.72478 147.202 10.5505C147.202 11.3762 147.11 12.1101 146.835 12.7523C146.56 13.3945 146.193 14.0367 145.734 14.4954C145.275 14.9541 144.725 15.3211 144.083 15.5963C143.44 15.8716 142.798 15.9633 142.064 15.9633C141.239 15.9633 140.505 15.7798 139.862 15.5046C139.22 15.2294 138.761 14.7706 138.303 14.3119V20.0917H136.468V5.41285H138.303V6.789C138.67 6.33028 139.22 5.87156 139.862 5.59633C140.505 5.32111 141.239 5.13762 142.064 5.13762ZM141.881 6.88074C141.33 6.88074 140.872 6.97248 140.413 7.15597C139.954 7.33945 139.587 7.61468 139.312 7.98166C139.037 8.34863 138.761 8.7156 138.578 9.17432C138.395 9.63303 138.303 10.0917 138.303 10.6422C138.303 11.1927 138.395 11.6514 138.578 12.1101C138.761 12.5688 139.037 12.9358 139.312 13.3028C139.587 13.6697 140.046 13.945 140.413 14.1284C140.872 14.3119 141.33 14.4037 141.881 14.4037C142.431 14.4037 142.89 14.3119 143.349 14.1284C143.807 13.945 144.174 13.6697 144.45 13.3028C144.725 12.9358 145 12.5688 145.183 12.1101C145.367 11.6514 145.459 11.1927 145.459 10.6422C145.459 10.0917 145.367 9.63303 145.183 9.17432C145 8.7156 144.817 8.34863 144.45 7.98166C144.174 7.61468 143.716 7.33945 143.349 7.15597C142.89 6.97248 142.431 6.88074 141.881 6.88074Z" fill="black"></path>
    <path d="M167.569 13.945L170.505 5.32111H172.431L168.67 15.7798H166.56L163.44 7.33945L160.505 15.8716H158.394L154.633 5.41285H156.56L159.495 13.945L162.431 5.41285H164.45L167.569 13.945Z" fill="black"></path>
    <path d="M175.642 0.45871C175.826 0.45871 176.009 0.45871 176.193 0.550453C176.376 0.642196 176.468 0.733939 176.56 0.825682C176.651 0.917425 176.743 1.10091 176.835 1.19265C176.927 1.2844 176.927 1.55963 176.927 1.65137C176.927 1.74311 176.927 2.01834 176.835 2.11009C176.743 2.20183 176.651 2.38532 176.56 2.47706C176.468 2.5688 176.284 2.66054 176.193 2.75229C176.101 2.84403 175.826 2.84403 175.642 2.84403C175.459 2.84403 175.275 2.84403 175.183 2.75229C175.092 2.66054 174.908 2.5688 174.816 2.47706C174.725 2.38532 174.633 2.20183 174.541 2.11009C174.45 1.9266 174.45 1.83486 174.45 1.65137C174.45 1.46788 174.45 1.2844 174.541 1.19265C174.633 1.10091 174.725 0.917425 174.816 0.825682C174.908 0.733939 175.092 0.642196 175.183 0.550453C175.275 0.45871 175.459 0.45871 175.642 0.45871ZM176.56 15.8716H174.725V5.41284H176.56V15.8716Z" fill="black"></path>
    <path d="M187.477 7.06422H183.073V12.2018C183.073 12.5688 183.165 12.9358 183.257 13.211C183.349 13.4862 183.532 13.7615 183.624 13.945C183.716 14.1284 183.991 14.3119 184.266 14.3119C184.541 14.4037 184.816 14.4037 185.092 14.4037C185.459 14.4037 185.826 14.3119 186.193 14.2202C186.56 14.1284 186.927 13.945 187.202 13.6697L188.027 15.0459C187.661 15.3211 187.202 15.5963 186.651 15.7798C186.101 15.9633 185.55 16.055 184.908 16.055C184.358 16.055 183.807 15.9633 183.349 15.7798C182.89 15.5963 182.523 15.4128 182.248 15.0459C181.972 14.6789 181.697 14.3119 181.514 13.8532C181.33 13.3945 181.239 12.7523 181.239 12.1101V7.06422H179.037V5.41284H181.239V2.11009H183.073V5.41284H187.477V7.06422Z" fill="black"></path>
    <path d="M192.156 6.78899C192.339 6.51376 192.615 6.23853 192.89 6.05505C193.165 5.87156 193.44 5.68807 193.716 5.59633C193.991 5.50459 194.358 5.41284 194.633 5.3211C194.908 5.22936 195.275 5.22936 195.55 5.22936C196.193 5.22936 196.835 5.3211 197.294 5.50459C197.844 5.68807 198.303 5.9633 198.67 6.33028C199.037 6.69725 199.404 7.15596 199.587 7.61468C199.771 8.16514 199.954 8.7156 199.954 9.3578V15.8716H198.119V10C198.119 8.99083 197.844 8.25688 197.385 7.70642C196.927 7.15596 196.193 6.88073 195.275 6.88073C194.817 6.88073 194.45 6.97248 194.083 7.06422C193.716 7.15596 193.349 7.43119 193.073 7.70642C192.798 7.98165 192.523 8.25688 192.431 8.7156C192.339 9.17431 192.156 9.54128 192.156 10V15.8716H190.321V0H192.156V6.78899Z" fill="black"></path>
    <path d="M180.287 137.551V135.859H180.972V135.513H179.228V135.859H179.909V137.551H180.283H180.287ZM183.672 137.551V135.508H183.135L182.523 136.912L181.91 135.508H181.373V137.551H181.752V136.012L182.329 137.339H182.721L183.298 136.008V137.551H183.676H183.672Z" fill="black"></path>
    <path d="M45.7195 184.045V175.274C45.7195 171.967 43.6105 169.745 40.2126 169.718C38.4235 169.687 36.5804 170.245 35.2915 172.201C34.3226 170.654 32.7994 169.718 30.6634 169.718C29.1672 169.718 27.7026 170.155 26.5625 171.796V170.074H23.5161V184.05H26.5895V176.299C26.5895 173.87 27.9414 172.584 30.0189 172.584C32.0964 172.584 33.0653 173.897 33.0653 176.268V184.045H36.1387V176.295C36.1387 173.866 37.5447 172.579 39.5681 172.579C41.5916 172.579 42.6416 173.893 42.6416 176.263V184.041H45.7195V184.045ZM91.2394 170.069H86.2597V165.827H83.1863V170.069H80.3427V172.845H83.1863V179.219C83.1863 182.462 84.4436 184.396 88.0488 184.396C89.3647 184.396 90.8924 183.987 91.8613 183.312L90.9825 180.708C90.0722 181.234 89.0763 181.499 88.2877 181.499C86.76 181.499 86.2643 180.564 86.2643 179.16V172.845H91.2439V170.069H91.2394ZM117.224 169.718C115.466 169.718 114.322 170.537 113.533 171.765V170.074H110.514V184.05H113.56V176.209C113.56 173.897 114.556 172.611 116.543 172.611C117.161 172.611 117.805 172.701 118.449 172.962L119.387 170.096C118.711 169.831 117.832 169.714 117.219 169.714L117.224 169.718ZM77.9453 171.18C76.4762 170.218 74.4573 169.718 72.2311 169.718C68.6845 169.718 66.4042 171.414 66.4042 174.19C66.4042 176.47 68.0986 177.874 71.2352 178.315L72.6727 178.517C74.3446 178.751 75.1333 179.192 75.1333 179.979C75.1333 181.063 74.0202 181.675 71.9382 181.675C69.8562 181.675 68.3059 181 67.283 180.213L65.8454 182.579C67.5128 183.807 69.6218 184.392 71.9111 184.392C75.9534 184.392 78.2968 182.494 78.2968 179.83C78.2968 177.374 76.4491 176.088 73.4028 175.647L71.9652 175.445C70.6493 175.269 69.5948 175.004 69.5948 174.073C69.5948 173.047 70.5907 172.431 72.2581 172.431C74.0427 172.431 75.7732 173.105 76.6204 173.627L77.9408 171.171L77.9453 171.18ZM159.553 169.718C157.791 169.718 156.655 170.537 155.862 171.765V170.074H152.843V184.05H155.889V176.209C155.889 173.897 156.885 172.611 158.877 172.611C159.49 172.611 160.139 172.701 160.779 172.962L161.716 170.096C161.04 169.831 160.161 169.714 159.549 169.714L159.553 169.718ZM36.5804 202.174H31.79V213.379H28.7211V202.174H25.9135V199.398H28.7211V197.037C28.7211 194.234 30.1406 192.008 33.4123 192.008C35.0527 192.008 36.2784 192.444 37.3149 193.056L36.2334 195.624C35.5213 195.215 34.5389 194.882 33.6196 194.882C32.4344 194.882 31.79 195.656 31.79 197.037V199.398H36.5804V202.174ZM52.7045 206.407C52.7045 202.219 49.4914 199.052 45.1607 199.052C40.83 199.052 37.6349 202.219 37.6349 206.407C37.6349 210.595 40.8345 213.761 45.1607 213.761C49.4869 213.761 52.7045 210.595 52.7045 206.407ZM40.7759 206.407C40.7759 203.766 42.6596 201.931 45.1607 201.931C47.6618 201.931 49.559 203.766 49.559 206.407C49.559 209.047 47.6618 210.883 45.1607 210.883C42.6596 210.883 40.7759 209.047 40.7759 206.407ZM68.1753 199.394H65.1063V207.167C65.1063 209.87 63.6012 210.86 61.6859 210.86C59.7707 210.86 58.2655 209.87 58.2655 207.167V199.394H55.1966V207.446C55.1966 211.899 58.3962 213.734 61.6859 213.734C64.9757 213.734 68.1753 211.899 68.1753 207.446V199.394ZM84.9529 204.594C84.9529 201.324 82.6005 199.034 79.2657 199.034C77.8326 199.034 76.0931 199.457 74.971 201.103V199.398H71.9292V213.375H74.9981V205.624C74.9981 203.231 76.6519 201.935 78.6258 201.935C80.5996 201.935 81.884 203.249 81.884 205.597V213.375H84.9574V204.589L84.9529 204.594ZM119.436 199.398H116.381V201.09C115.417 199.848 113.97 199.034 111.983 199.034C108.067 199.034 104.984 202.115 104.984 206.389C104.984 210.662 108.071 213.743 111.983 213.743C113.97 213.743 115.417 212.938 116.381 211.701V213.375H119.436V199.398ZM108.121 206.389C108.121 203.937 109.711 201.908 112.343 201.908C114.975 201.908 116.566 203.834 116.566 206.389C116.566 208.944 114.871 210.865 112.343 210.865C109.815 210.865 108.121 208.836 108.121 206.389ZM157.539 206.402C157.539 202.214 154.326 199.047 149.995 199.047C145.664 199.047 142.465 202.214 142.465 206.402C142.465 210.59 145.669 213.757 149.995 213.757C154.321 213.757 157.539 210.59 157.539 206.402ZM145.61 206.402C145.61 203.762 147.494 201.926 149.995 201.926C152.496 201.926 154.393 203.762 154.393 206.402C154.393 209.043 152.491 210.878 149.995 210.878C147.498 210.878 145.61 209.043 145.61 206.402ZM173.379 204.589C173.379 201.319 171.031 199.029 167.696 199.029C166.259 199.029 164.524 199.452 163.402 201.099V199.394H160.36V213.37H163.429V205.619C163.429 203.226 165.083 201.931 167.052 201.931C169.021 201.931 170.315 203.244 170.315 205.592V213.37H173.383V204.585L173.379 204.589ZM132.776 199.376H127.836V195.17H124.786V199.376H121.969V202.133H124.786V208.453C124.786 211.674 126.034 213.586 129.608 213.586C130.919 213.586 132.424 213.181 133.384 212.511L132.514 209.929C131.613 210.451 130.626 210.712 129.837 210.712C128.332 210.712 127.832 209.785 127.832 208.39V202.124H132.771V199.367L132.776 199.376ZM102.118 193.766V213.37H99.0671V211.674C98.0983 212.934 96.6336 213.725 94.6373 213.725C90.7076 213.725 87.6297 210.649 87.6297 206.38C87.6297 202.111 90.7076 199.034 94.6373 199.034C96.6336 199.034 98.0983 199.826 99.0671 201.085V193.771H102.118V193.766ZM95.0203 210.856C97.5395 210.856 99.2429 208.921 99.2429 206.38C99.2429 203.838 97.544 201.904 95.0203 201.904C92.4967 201.904 90.7707 203.924 90.7707 206.38C90.7707 208.836 92.3795 210.856 95.0203 210.856ZM139.648 199.376H136.57V213.37H139.648V199.376ZM138.089 192.633C136.858 192.633 135.948 193.568 135.948 194.801C135.948 196.034 136.858 196.938 138.089 196.938C139.319 196.938 140.261 196.002 140.261 194.801C140.261 193.6 139.292 192.633 138.089 192.633ZM120.288 177.046C120.288 181.288 123.249 184.387 127.76 184.387C129.869 184.387 131.275 183.919 132.798 182.718L131.334 180.262C130.193 181.081 128.99 181.522 127.67 181.522C125.236 181.49 123.452 179.741 123.452 177.046C123.452 174.352 125.236 172.602 127.67 172.575C128.986 172.575 130.193 173.011 131.334 173.834L132.798 171.378C131.275 170.182 129.869 169.709 127.76 169.709C123.249 169.709 120.288 172.809 120.288 177.051V177.046ZM148.823 177.046V170.06H145.772V171.751C144.808 170.496 143.343 169.705 141.351 169.705C137.426 169.705 134.353 172.773 134.353 177.046C134.353 181.319 137.426 184.387 141.351 184.387C143.343 184.387 144.808 183.596 145.772 182.341V184.036H148.823V177.046ZM137.485 177.046C137.485 174.59 139.094 172.575 141.734 172.575C144.375 172.575 145.953 174.504 145.953 177.046C145.953 179.588 144.254 181.522 141.734 181.522C139.215 181.522 137.485 179.502 137.485 177.046ZM100.721 169.705C96.6201 169.705 93.7495 172.687 93.7495 177.046C93.7495 181.405 96.7328 184.387 100.924 184.387C103.033 184.387 104.966 183.861 106.665 182.426L105.173 180.177C104.002 181.113 102.506 181.639 101.104 181.639C99.1392 181.639 97.3547 180.735 96.913 178.216H107.314C107.341 177.833 107.373 177.455 107.373 177.046C107.346 172.692 104.646 169.705 100.721 169.705ZM100.662 172.422C102.623 172.422 103.885 173.65 104.205 175.818H96.9401C97.26 173.798 98.4948 172.422 100.662 172.422ZM177.088 177.042V164.442H174.041V171.751C173.072 170.496 171.608 169.705 169.616 169.705C165.691 169.705 162.617 172.773 162.617 177.046C162.617 181.319 165.691 184.387 169.616 184.387C171.608 184.387 173.072 183.596 174.041 182.341V184.036H177.088V177.046V177.042ZM165.754 177.042C165.754 174.585 167.363 172.57 169.999 172.57C172.635 172.57 174.217 174.5 174.217 177.042C174.217 179.583 172.518 181.517 169.999 181.517C167.48 181.517 165.754 179.498 165.754 177.042ZM62.8711 177.042V170.056H59.8248V171.747C58.8604 170.492 57.3958 169.7 55.4039 169.7C51.4788 169.7 48.4008 172.768 48.4008 177.042C48.4008 181.315 51.4788 184.383 55.4039 184.383C57.3958 184.383 58.8604 183.591 59.8248 182.336V184.032H62.8711V177.042ZM51.5373 177.042C51.5373 174.585 53.1462 172.57 55.7824 172.57C58.4187 172.57 60.0005 174.5 60.0005 177.042C60.0005 179.583 58.3061 181.517 55.7824 181.517C53.2588 181.517 51.5373 179.498 51.5373 177.042Z" fill="black"></path>
    <path d="M123.069 63.5484H76.9268V146.322H123.069V63.5484Z" fill="#F26522"></path>
    <path d="M79.8606 104.933C79.8606 88.1408 87.7379 73.1839 100.004 63.5484C91.0276 56.495 79.7118 52.2936 67.4092 52.2936C38.2883 52.2936 14.6789 75.8604 14.6789 104.933C14.6789 134.006 38.2883 157.577 67.4092 157.577C79.7118 157.577 91.0276 153.371 100 146.318C87.7379 136.682 79.856 121.725 79.856 104.933" fill="#E51B24"></path>
    <path d="M185.321 104.933C185.321 134.006 161.712 157.577 132.586 157.577C120.288 157.577 108.968 153.371 100 146.318C112.262 136.682 120.144 121.725 120.144 104.933C120.144 88.1408 112.267 73.1839 100 63.5484C108.972 56.495 120.288 52.2936 132.591 52.2936C161.716 52.2936 185.326 75.8604 185.326 104.933" fill="#F99F1C"></path>
  </g>
  <defs>
    <clipPath id="clip0_7_2">
      <rect width="200" height="213.761" fill="white"></rect>
    </clipPath>
  </defs>
</svg>
